<?xml version="1.0" encoding="UTF-8" standalone="no"?>
<svg
   xmlns:dc="http://purl.org/dc/elements/1.1/"
   xmlns:cc="http://creativecommons.org/ns#"
   xmlns:rdf="http://www.w3.org/1999/02/22-rdf-syntax-ns#"
   xmlns:svg="http://www.w3.org/2000/svg"
   xmlns="http://www.w3.org/2000/svg"
   xmlns:sodipodi="http://sodipodi.sourceforge.net/DTD/sodipodi-0.dtd"
   xmlns:inkscape="http://www.inkscape.org/namespaces/inkscape"
   version="1.0"
   width="300.000000pt"
   height="200.000000pt"
   viewBox="0 0 300.000000 200.000000"
   preserveAspectRatio="xMidYMid meet"
   id="svg2120"
   sodipodi:docname="rRgFCA01.svg"
   inkscape:version="1.0.2 (1.0.2+r75+1)">
  <defs
     id="defs2124" />
  <sodipodi:namedview
     pagecolor="#ffffff"
     bordercolor="#666666"
     borderopacity="1"
     objecttolerance="10"
     gridtolerance="10"
     guidetolerance="10"
     inkscape:pageopacity="0"
     inkscape:pageshadow="2"
     inkscape:window-width="1920"
     inkscape:window-height="1136"
     id="namedview2122"
     showgrid="false"
     inkscape:zoom="2.82375"
     inkscape:cx="200"
     inkscape:cy="133.33333"
     inkscape:window-x="0"
     inkscape:window-y="27"
     inkscape:window-maximized="1"
     inkscape:current-layer="svg2120" />
  <metadata
     id="metadata1840">
Created by potrace 1.10, written by Peter Selinger 2001-2011
<rdf:RDF>
  <cc:Work
     rdf:about="">
    <dc:format>image/svg+xml</dc:format>
    <dc:type
       rdf:resource="http://purl.org/dc/dcmitype/StillImage" />
  </cc:Work>
</rdf:RDF>
</metadata>
  <g
     transform="translate(0.000000,200.000000) scale(0.100000,-0.100000)"
     fill="#000000"
     stroke="none"
     id="g2118"
     style="fill:#ffffff;fill-opacity:1">
    <path
       d="M1123 1993 c-7 -3 -13 -11 -13 -18 0 -7 -13 -16 -29 -20 -31 -7 -91 -60 -91 -81 0 -8 -5 -14 -11 -14 -8 0 -9 -4 0 -13 8 -11 5 -16 -14 -25 -14 -6 -25 -16 -25 -21 0 -6 -11 -21 -25 -35 -14 -14 -25 -34 -25 -45 0 -11 -7 -38 -15 -58 -7 -21 -16 -67 -19 -103 -3 -36 -12 -102 -20 -147 -9 -46 -13 -88 -11 -95 3 -7 19 -22 35 -33 35 -24 37 -31 9 -38 -12 -3 -18 -10 -14 -16 3 -6 11 -8 17 -5 7 5 8 2 3 -7 -5 -7 -8 -28 -7 -46 2 -26 -1 -31 -13 -27 -8 3 -15 3 -15 0 0 -4 14 -12 31 -18 25 -8 30 -15 25 -32 -3 -11 -6 -34 -6 -49 0 -20 -4 -26 -12 -21 -10 6 -10 4 0 -7 18 -19 15 -41 -5 -37 -10 2 -19 12 -19 23 -1 11 -3 22 -4 25 -3 8 -9 50 -16 103 -4 30 -2 53 5 61 9 10 9 16 1 21 -8 5 -8 11 0 20 7 9 6 16 -5 25 -8 7 -12 16 -9 21 3 5 0 9 -5 9 -6 0 -12 -8 -12 -17 -1 -10 -3 -34 -5 -53 -4 -31 10 -108 37 -212 6 -22 17 -39 29 -43 11 -4 20 -9 21 -13 0 -4 2 -16 4 -27 2 -11 6 -46 9 -78 3 -32 8 -62 11 -67 3 -5 1 -11 -5 -15 -5 -3 -10 -22 -10 -41 0 -19 -4 -34 -8 -34 -5 0 -36 -25 -69 -55 -43 -39 -60 -61 -59 -78 1 -20 4 -21 23 -12 28 12 30 25 4 20 -14 -2 -3 13 32 50 54 55 70 64 43 23 -21 -33 -46 -143 -46 -209 0 -30 -5 -60 -10 -65 -6 -6 -15 -26 -20 -45 -9 -32 -8 -33 6 -14 8 11 19 19 24 18 6 -2 15 24 21 65 0 4 5 12 10 18 5 6 14 49 20 95 5 46 17 112 24 147 8 35 15 75 15 89 0 22 2 24 15 13 9 -7 14 -19 11 -27 -3 -7 0 -26 6 -41 6 -15 10 -32 9 -38 0 -6 7 -18 16 -25 16 -12 17 -12 6 2 -7 9 -10 19 -6 22 3 4 2 12 -3 20 -5 7 -1 4 9 -6 9 -11 17 -27 17 -38 0 -10 5 -21 10 -24 6 -3 10 -15 10 -26 0 -12 5 -19 13 -16 6 2 11 13 9 25 -2 16 2 20 22 18 14 -2 23 1 20 6 -3 5 -11 8 -17 7 -32 -4 -46 2 -41 16 4 9 -3 23 -15 34 -11 10 -21 24 -21 30 0 7 -4 10 -9 6 -6 -3 -9 3 -8 13 0 10 -7 35 -17 55 -21 46 -40 205 -31 272 4 27 8 74 11 104 2 29 10 67 18 83 16 31 13 53 -9 61 -8 4 -11 -1 -8 -14 3 -10 2 -27 -2 -36 -5 -10 -7 -22 -6 -26 1 -5 -3 -6 -9 -2 -6 3 -8 10 -5 15 3 4 -1 11 -7 14 -10 4 -9 8 3 17 13 10 14 17 5 41 -7 20 -7 36 1 58 10 27 10 29 -7 20 -23 -12 -35 -30 -21 -30 6 0 11 -4 11 -8 0 -5 -7 -9 -15 -9 -8 0 -12 4 -9 9 3 4 0 8 -6 8 -6 0 -8 5 -5 10 3 6 0 10 -7 10 -10 0 -10 2 1 9 9 6 11 18 7 34 -3 14 -1 29 4 32 6 4 7 11 4 17 -5 7 -2 8 5 4 9 -6 10 -21 6 -48 -5 -28 -4 -38 3 -34 6 4 9 13 5 21 -3 8 -1 15 4 15 11 0 11 59 0 76 -9 15 -5 64 5 64 4 0 16 18 27 41 16 33 17 40 5 35 -9 -3 -17 -6 -20 -6 -2 0 -1 -6 2 -14 3 -8 0 -17 -7 -22 -8 -4 -10 -3 -5 5 4 6 2 19 -5 27 -10 12 -10 15 2 12 8 -2 13 3 11 11 -2 9 3 11 15 6 10 -3 20 -7 23 -8 3 -1 7 3 9 8 2 6 10 24 18 42 16 40 16 40 -2 40 -8 0 -12 -4 -9 -9 3 -5 0 -15 -6 -23 -6 -8 -9 -19 -6 -24 9 -14 -14 -25 -27 -12 -8 8 -8 11 2 11 7 0 10 4 6 9 -3 5 -1 12 5 16 5 3 10 16 10 28 -1 21 -1 22 -15 3 -8 -11 -17 -17 -21 -14 -7 7 26 43 70 76 25 19 27 22 10 23 -14 0 -15 2 -4 6 28 10 50 36 50 59 0 13 5 26 12 30 7 4 8 3 4 -4 -4 -7 -2 -12 3 -12 6 0 11 9 11 20 0 11 5 20 10 20 12 0 12 -2 0 -35 -7 -17 -7 -24 0 -20 6 3 10 14 11 23 0 14 2 14 10 -3 8 -17 8 -15 4 8 -3 15 -2 27 2 26 5 -1 17 -1 28 0 17 1 18 3 5 11 -12 8 -8 10 15 11 17 1 36 1 44 0 8 -2 10 2 5 10 -5 9 -2 10 9 6 10 -3 17 -2 17 3 0 6 -22 8 -52 5 -35 -3 -48 -2 -38 5 16 10 11 20 -7 13z m-239 -699 c5 -14 4 -15 -9 -4 -17 14 -19 20 -6 20 5 0 12 -7 15 -16z m26 -139 c0 -8 -4 -16 -9 -19 -5 -3 -8 5 -8 19 0 14 3 22 8 19 5 -3 9 -11 9 -19z"
       id="path1842"
       style="fill:#ffffff;fill-opacity:1" />
    <path
       d="M1243 1993 c-21 -8 -15 -22 7 -16 11 3 20 9 20 14 0 10 -8 10 -27 2z"
       id="path1844"
       style="fill:#ffffff;fill-opacity:1" />
    <path
       d="M1285 1990 c-3 -5 -1 -10 4 -10 6 0 11 5 11 10 0 6 -2 10 -4 10 -3 0 -8 -4 -11 -10z"
       id="path1846"
       style="fill:#ffffff;fill-opacity:1" />
    <path
       d="M1310 1988 c0 -8 108 -3 116 5 3 3 -22 4 -55 3 -34 0 -61 -4 -61 -8z"
       id="path1848"
       style="fill:#ffffff;fill-opacity:1" />
    <path
       d="M1450 1985 c-9 -11 -9 -15 -1 -15 7 0 9 -4 6 -10 -3 -5 0 -10 8 -10 8 0 29 -3 47 -7 23 -4 31 -3 26 5 -4 6 -14 8 -23 5 -13 -5 -15 -2 -10 11 4 10 7 20 7 22 0 6 53 -28 65 -42 6 -6 23 -15 38 -18 15 -4 25 -11 22 -16 -3 -5 -13 -7 -23 -4 -13 5 -14 4 -3 -4 7 -5 22 -7 33 -4 15 4 19 1 16 -9 -3 -8 -15 -13 -28 -11 -13 1 -27 -3 -31 -10 -6 -9 -12 -8 -26 4 -17 15 -20 15 -42 -3 -29 -24 -48 -25 -30 -1 7 9 -1 4 -18 -11 -22 -21 -32 -40 -35 -68 -4 -47 4 -51 17 -7 10 33 64 78 94 78 9 0 3 -7 -13 -15 -42 -22 -76 -62 -76 -89 0 -31 -25 -53 -34 -30 -3 8 -6 25 -7 37 0 21 -1 21 -8 2 -5 -11 -5 -27 0 -37 7 -13 5 -15 -11 -11 -11 3 -20 9 -20 14 0 5 -4 9 -10 9 -5 0 -7 -6 -4 -13 5 -14 -29 -17 -42 -4 -4 4 -13 2 -21 -5 -7 -6 -16 -8 -20 -4 -3 3 -1 6 6 6 7 0 9 5 6 10 -4 6 -12 7 -18 3 -8 -5 -8 -2 1 9 10 12 9 23 -3 58 -16 44 -14 51 18 87 15 16 24 20 33 13 8 -8 23 -6 48 6 36 18 66 11 33 -7 -20 -12 -62 -89 -47 -89 5 0 12 11 16 25 3 13 24 41 46 61 22 19 37 38 33 42 -3 4 -11 0 -16 -8 -7 -10 -12 -11 -15 -4 -5 12 -41 8 -60 -8 -6 -4 -19 -6 -28 -2 -9 3 -23 1 -31 -6 -8 -7 -21 -10 -30 -7 -8 4 -21 -3 -30 -16 -8 -12 -15 -19 -16 -17 -7 39 -4 50 13 50 10 0 18 4 18 9 0 5 11 8 25 6 16 -1 25 3 25 11 0 15 -45 19 -75 8 -13 -5 -14 -9 -4 -15 9 -5 4 -10 -16 -15 -18 -4 -30 -3 -33 4 -5 17 -59 -6 -65 -30 -5 -19 -5 -19 14 -2 22 20 49 27 49 13 0 -5 5 -9 11 -9 19 0 39 -33 28 -46 -6 -8 -4 -14 6 -17 8 -4 14 -3 14 1 -3 20 3 32 24 43 20 11 21 11 8 -4 -7 -10 -15 -38 -17 -64 -2 -32 0 -43 6 -33 8 12 10 10 10 -7 0 -16 -4 -21 -15 -17 -11 5 -14 2 -9 -12 14 -40 34 -52 77 -49 23 2 46 1 51 -3 6 -3 32 -6 58 -7 48 -1 60 9 36 33 -9 9 -9 12 0 12 7 0 15 -8 18 -17 10 -34 21 -48 37 -48 9 0 19 -4 23 -8 11 -10 34 -9 34 3 0 5 -6 7 -13 4 -14 -5 -52 61 -48 86 1 13 0 13 -8 1 -5 -8 -7 -21 -4 -30 4 -11 -1 -9 -15 6 -14 14 -19 28 -15 39 6 16 7 16 13 -1 6 -17 7 -17 12 3 4 14 2 20 -4 16 -6 -4 -8 -1 -6 7 3 8 11 13 18 11 6 -1 25 9 42 23 16 14 42 25 58 25 16 0 35 7 43 15 8 8 17 12 19 9 3 -2 19 1 37 7 27 10 35 9 49 -5 15 -15 13 -16 -23 -17 -47 -1 -38 -5 26 -14 40 -5 48 -11 67 -44 12 -21 22 -49 22 -62 1 -22 2 -22 11 -6 6 10 8 26 4 35 -4 11 -3 13 3 7 5 -5 13 -21 17 -35 5 -19 4 -21 -4 -10 -9 13 -11 12 -11 -5 1 -11 7 -29 16 -40 10 -14 14 -39 13 -82 -1 -35 0 -66 4 -69 3 -3 1 -17 -5 -30 l-11 -24 -12 23 c-9 17 -8 27 4 47 14 21 14 23 1 15 -21 -13 -52 -7 -72 15 -20 22 -16 40 12 58 24 15 26 9 4 -12 -8 -9 -12 -21 -9 -27 10 -15 55 30 55 55 0 29 -15 52 -24 37 -4 -6 -4 -16 0 -23 4 -6 3 -8 -3 -5 -5 3 -17 -3 -26 -14 -9 -10 -26 -19 -37 -19 -22 0 -27 -16 -7 -23 9 -3 9 -7 -2 -20 -7 -10 -11 -18 -7 -18 3 -1 10 -2 15 -3 5 0 12 -4 15 -7 15 -15 45 -164 52 -253 6 -91 5 -99 -10 -93 -10 4 -25 7 -33 7 -10 0 -14 6 -10 19 3 13 -3 22 -22 30 -25 11 -25 11 -6 -5 20 -16 19 -16 -5 -11 -14 3 -43 2 -65 -3 l-40 -8 42 -1 c74 -2 54 -16 -25 -17 -43 -1 -106 -4 -142 -8 -53 -6 -74 -4 -115 13 -30 12 -42 21 -30 21 11 1 -8 11 -42 23 -34 12 -65 25 -69 30 -10 10 -44 9 -44 -1 0 -5 -7 -9 -15 -9 -8 0 -15 4 -15 8 0 4 -9 6 -21 4 -16 -3 -19 0 -15 13 6 16 5 16 -8 0 -7 -10 -24 -18 -37 -19 -39 -1 -9 -8 71 -18 l75 -8 -95 -3 c-52 -2 -107 -4 -121 -5 -14 -1 -44 7 -67 19 l-40 21 13 33 c8 18 13 33 12 35 -1 1 8 16 20 33 14 19 18 31 10 30 -6 0 -13 3 -14 9 -2 5 5 10 15 10 10 0 17 8 17 20 0 14 6 19 20 17 19 -2 19 -2 1 9 -15 10 -22 9 -31 -4 -7 -9 -14 -16 -16 -14 -2 1 2 -4 10 -10 8 -7 11 -13 7 -13 -13 0 -46 20 -46 29 0 10 51 35 65 32 6 -1 5 3 -2 10 -9 9 -9 17 2 33 19 31 30 70 16 62 -11 -7 -15 4 -12 37 3 24 -4 21 -24 -10 -16 -23 -16 -25 -1 -20 12 5 16 0 16 -21 -1 -26 -1 -26 -15 -8 -8 11 -15 15 -15 10 0 -6 5 -15 12 -22 8 -8 8 -15 -1 -25 -20 -24 -50 -27 -64 -6 -13 18 -15 17 -36 -12 -33 -44 -12 -81 25 -44 14 13 14 15 1 15 -9 0 -17 -6 -20 -12 -2 -7 -8 -10 -12 -6 -4 3 -3 12 2 20 9 15 53 19 53 5 0 -5 7 -4 15 3 8 6 22 10 32 8 13 -3 8 -9 -19 -21 -21 -9 -38 -20 -38 -26 0 -5 -8 -11 -17 -13 -15 -3 -14 -6 6 -25 23 -21 23 -23 5 -29 -37 -14 -46 -26 -28 -39 13 -9 14 -16 5 -33 -16 -29 -14 -40 8 -47 11 -3 23 -15 26 -25 3 -10 28 -29 55 -42 52 -24 49 -19 66 -124 7 -48 49 -65 176 -72 135 -7 141 -4 179 73 18 36 36 68 40 71 12 7 59 -7 59 -18 0 -5 -4 -7 -9 -3 -6 3 0 -25 13 -62 22 -65 24 -68 67 -81 59 -17 177 -25 214 -15 24 7 37 22 62 73 17 36 37 66 42 68 22 7 11 42 -14 48 -29 7 -28 4 -11 40 8 16 17 65 21 109 4 44 11 88 16 97 6 11 5 18 -4 21 -9 4 -9 6 1 6 15 1 17 78 2 115 -6 18 -5 35 5 59 13 31 12 37 -13 87 -37 75 -124 157 -186 175 -27 8 -53 12 -59 8 -5 -3 -7 -1 -4 4 4 6 -7 13 -24 17 -19 4 -33 13 -36 26 -4 14 -12 19 -27 16 -12 -2 -30 2 -41 10 -25 18 -79 18 -95 -1z m45 -5 c-3 -5 -12 -10 -18 -10 -7 0 -6 4 3 10 19 12 23 12 15 0z m215 -84 c0 -11 -19 -15 -25 -6 -3 5 1 10 9 10 9 0 16 -2 16 -4z m-228 -68 c-7 -7 -12 -8 -12 -2 0 6 3 14 7 17 3 4 9 5 12 2 2 -3 -1 -11 -7 -17z m78 7 c0 -2 -10 -10 -22 -16 -21 -11 -22 -11 -9 4 13 16 31 23 31 12z m-80 -134 c0 -4 -6 -8 -14 -8 -8 0 -12 6 -9 14 5 13 23 9 23 -6z m386 -181 c-2 -16 0 -30 4 -30 11 0 30 -72 27 -102 -1 -14 -5 -24 -9 -22 -3 2 -9 -4 -11 -13 -3 -10 -5 5 -5 32 0 39 2 45 8 25 7 -23 8 -24 9 -3 1 12 -10 43 -24 68 -19 37 -22 49 -12 60 17 19 17 19 13 -15z m-891 -60 c-3 -5 -1 -19 5 -29 9 -17 6 -23 -15 -37 -31 -20 -40 -15 -19 12 8 10 12 12 8 4 -6 -12 -4 -13 7 -2 11 10 11 17 2 31 -12 19 -8 31 9 31 5 0 6 -4 3 -10z m-26 -127 c0 -25 -1 -26 -9 -8 -12 27 -12 35 0 35 6 0 10 -12 9 -27z m406 -73 c14 -7 10 -8 -17 -4 -42 7 -69 -3 -47 -17 20 -12 31 -11 23 2 -4 8 4 9 27 4 46 -10 89 -33 90 -48 3 -35 -5 -66 -27 -99 -28 -44 -63 -54 -168 -45 -88 8 -133 23 -141 48 -11 32 -7 131 5 143 6 6 50 13 98 17 126 9 135 9 157 -1z m430 -51 c38 -5 76 -16 84 -23 18 -18 8 -90 -19 -134 l-20 -32 -87 0 c-104 0 -159 13 -174 41 -6 12 -13 42 -16 69 -4 41 -2 50 18 64 13 9 35 16 49 15 23 0 23 -1 5 -8 -11 -5 -23 -7 -27 -4 -5 2 -8 -1 -8 -8 0 -8 10 -9 31 -5 17 3 40 6 50 6 11 0 19 5 19 11 0 6 -9 8 -20 4 -11 -4 -20 -2 -20 4 0 14 44 14 135 0z"
       id="path1850"
       style="fill:#ffffff;fill-opacity:1" />
    <path
       d="M1140 1217 c-36 -18 -35 -40 2 -60 18 -10 25 -12 16 -4 -22 17 -23 31 -3 23 9 -3 15 0 15 9 0 22 18 18 25 -5 8 -25 50 -27 64 -2 8 14 12 15 22 5 18 -18 34 -16 19 2 -23 28 5 15 41 -18 34 -31 37 -32 48 -15 10 15 8 18 -12 18 -33 0 -61 32 -44 50 10 12 9 12 -5 1 -14 -10 -25 -11 -49 -2 -42 15 -108 14 -139 -2z m38 -7 c-14 -4 -32 -11 -40 -15 -7 -3 -4 1 6 9 11 9 29 16 40 15 17 -1 16 -2 -6 -9z m97 0 c14 -7 8 -8 -20 -3 -22 3 -42 7 -44 9 -9 8 45 2 64 -6z"
       id="path1852"
       style="fill:#ffffff;fill-opacity:1" />
    <path
       d="M1368 1213 c7 -3 16 -2 19 1 4 3 -2 6 -13 5 -11 0 -14 -3 -6 -6z"
       id="path1854"
       style="fill:#ffffff;fill-opacity:1" />
    <path
       d="M1295 1160 c-18 -8 -17 -9 6 -9 15 -1 32 -8 39 -16 7 -9 15 -13 18 -10 6 5 -28 45 -37 44 -3 0 -15 -4 -26 -9z"
       id="path1856"
       style="fill:#ffffff;fill-opacity:1" />
    <path
       d="M1396 1134 c-4 -10 -1 -14 6 -12 15 5 23 28 10 28 -5 0 -13 -7 -16 -16z"
       id="path1858"
       style="fill:#ffffff;fill-opacity:1" />
    <path
       d="M1139 1120 c36 -31 199 -24 168 7 -5 4 -11 3 -15 -3 -11 -16 -89 -16 -129 1 -47 20 -53 18 -24 -5z"
       id="path1860"
       style="fill:#ffffff;fill-opacity:1" />
    <path
       d="M1708 1203 c7 -3 16 -2 19 1 4 3 -2 6 -13 5 -11 0 -14 -3 -6 -6z"
       id="path1862"
       style="fill:#ffffff;fill-opacity:1" />
    <path
       d="M1812 1175 c0 -16 2 -22 5 -12 2 9 2 23 0 30 -3 6 -5 -1 -5 -18z"
       id="path1864"
       style="fill:#ffffff;fill-opacity:1" />
    <path
       d="M1840 1180 c20 -13 33 -13 25 0 -3 6 -14 10 -23 10 -15 0 -15 -2 -2 -10z"
       id="path1866"
       style="fill:#ffffff;fill-opacity:1" />
    <path
       d="M1620 1162 c-6 -2 -7 -8 -4 -14 4 -6 -1 -8 -14 -4 -11 4 -23 2 -27 -3 -4 -7 1 -8 12 -4 16 6 17 5 3 -12 -14 -17 -14 -18 7 -7 12 7 26 20 31 29 9 14 10 14 16 -4 11 -34 66 -40 66 -7 0 8 6 14 14 14 16 0 49 -58 40 -71 -13 -22 -129 -3 -145 23 -5 7 -9 7 -13 -1 -11 -17 68 -51 118 -51 41 0 45 2 51 30 4 16 12 28 18 27 6 -1 12 7 14 18 3 16 2 17 -6 5 -10 -13 -11 -13 -12 0 -1 8 -1 18 0 22 2 15 -130 22 -169 10z"
       id="path1868"
       style="fill:#ffffff;fill-opacity:1" />
    <path
       d="M1829 1111 c-2 -27 -1 -47 3 -43 9 9 14 79 6 87 -3 4 -8 -16 -9 -44z"
       id="path1870"
       style="fill:#ffffff;fill-opacity:1" />
    <path
       d="M1709 1089 c16 -6 28 -6 35 1 7 7 -1 10 -24 9 -33 0 -34 -1 -11 -10z"
       id="path1872"
       style="fill:#ffffff;fill-opacity:1" />
    <path
       d="M1376 1969 c3 -5 -4 -9 -15 -9 -11 0 -23 -4 -26 -10 -8 -13 2 -12 50 5 42 15 43 16 8 20 -12 1 -20 -2 -17 -6z"
       id="path1874"
       style="fill:#ffffff;fill-opacity:1" />
    <path
       d="M1535 1930 c-18 -8 -17 -9 8 -9 16 -1 26 3 22 9 -3 6 -7 10 -8 9 -1 0 -11 -4 -22 -9z"
       id="path1876"
       style="fill:#ffffff;fill-opacity:1" />
    <path
       d="M1486 1909 c5 -9 2 -10 -9 -6 -20 8 -79 -57 -71 -78 4 -8 1 -15 -6 -15 -7 0 -10 -7 -6 -15 3 -8 1 -15 -4 -15 -5 0 -7 -7 -3 -16 9 -23 21 -4 26 38 4 38 23 71 38 63 4 -3 12 2 17 11 13 23 84 30 105 10 9 -9 18 -12 22 -7 8 13 -21 27 -73 35 -32 5 -42 3 -36 -5z"
       id="path1878"
       style="fill:#ffffff;fill-opacity:1" />
    <path
       d="M1123 1872 c-15 -12 -22 -27 -21 -50 1 -18 4 -29 8 -23 3 6 15 9 26 7 18 -4 20 0 16 21 -3 17 -1 24 6 19 6 -3 13 -2 17 4 8 13 -6 13 -39 0 -14 -5 -26 -6 -26 -2 0 10 71 31 86 25 7 -2 10 -12 7 -21 -4 -14 -3 -14 5 -3 27 39 -42 57 -85 23z m17 -48 c0 -8 -4 -12 -10 -9 -5 3 -10 10 -10 16 0 5 5 9 10 9 6 0 10 -7 10 -16z"
       id="path1880"
       style="fill:#ffffff;fill-opacity:1" />
    <path
       d="M1360 1875 c-7 -9 -11 -17 -9 -20 3 -2 10 5 17 15 14 24 10 26 -8 5z"
       id="path1882"
       style="fill:#ffffff;fill-opacity:1" />
    <path
       d="M1306 1863 c-6 -14 -5 -15 5 -6 7 7 10 15 7 18 -3 3 -9 -2 -12 -12z"
       id="path1884"
       style="fill:#ffffff;fill-opacity:1" />
    <path
       d="M1075 1859 c-4 -6 -14 -8 -22 -4 -14 5 -14 3 -2 -11 8 -9 12 -29 10 -43 -3 -28 11 -22 16 7 12 58 11 73 -2 51z"
       id="path1886"
       style="fill:#ffffff;fill-opacity:1" />
    <path
       d="M1664 1834 c8 -10 23 -28 32 -39 10 -13 14 -14 11 -5 -7 24 85 21 111 -3 19 -17 29 -83 11 -72 -4 3 -5 -4 -2 -15 3 -12 2 -20 -3 -19 -5 1 -22 -3 -37 -9 -16 -7 -39 -12 -53 -12 -29 0 -31 -15 -4 -30 16 -9 22 -8 26 5 3 8 11 12 17 8 6 -4 7 -1 2 7 -6 10 -4 12 8 7 10 -3 17 -2 17 3 0 6 5 9 12 8 15 -4 38 40 38 74 0 15 -11 39 -24 54 -19 23 -35 29 -82 34 -33 4 -67 11 -78 15 -17 8 -17 7 -2 -11z"
       id="path1888"
       style="fill:#ffffff;fill-opacity:1" />
    <path
       d="M1317 1833 c-4 -3 -7 -13 -7 -22 1 -13 3 -13 11 2 11 19 8 33 -4 20z"
       id="path1890"
       style="fill:#ffffff;fill-opacity:1" />
    <path
       d="M1336 1824 c-9 -23 -7 -82 2 -88 4 -3 8 20 8 50 -1 30 -1 54 -2 54 -1 0 -5 -7 -8 -16z"
       id="path1892"
       style="fill:#ffffff;fill-opacity:1" />
    <path
       d="M1612 1833 c-34 -6 -66 -43 -69 -78 -1 -16 0 -24 3 -17 8 17 33 -15 34 -43 0 -17 2 -17 10 -5 9 13 11 13 20 0 5 -8 10 -19 10 -25 0 -5 -5 -3 -10 5 -6 9 -10 10 -10 3 0 -17 15 -24 59 -28 42 -4 62 15 41 40 -12 14 6 75 22 75 5 0 6 -5 2 -12 -4 -7 -3 -8 4 -4 7 4 12 2 12 -3 0 -6 -7 -11 -16 -11 -8 0 -13 -4 -9 -9 3 -5 0 -13 -7 -17 -23 -15 26 -22 59 -9 17 7 35 10 39 7 4 -4 4 -1 0 6 -5 8 -13 9 -26 2 -10 -5 -27 -10 -37 -10 -16 0 -15 2 4 22 l22 21 -26 14 c-18 9 -30 10 -36 4 -15 -15 -36 -81 -26 -81 5 0 9 -7 9 -15 0 -8 -5 -15 -11 -15 -5 0 -7 5 -4 10 3 6 0 13 -8 16 -9 3 -18 16 -21 30 -6 23 -26 34 -26 14 0 -5 -8 -10 -17 -9 -11 0 -13 3 -5 6 6 2 12 12 12 21 0 15 -2 15 -10 2 -8 -12 -10 -12 -11 5 0 20 0 20 -8 0 -8 -19 -8 -19 -15 2 -9 29 2 51 16 32 7 -10 8 -8 3 8 -3 12 -1 24 5 28 6 4 11 1 9 -6 -3 -27 1 -40 11 -34 6 4 7 12 4 18 -4 7 -4 9 1 5 4 -4 14 -3 22 4 7 6 15 9 17 7 1 -2 10 -15 19 -29 9 -13 17 -19 17 -12 0 24 -54 69 -78 65z"
       id="path1894"
       style="fill:#ffffff;fill-opacity:1" />
    <path
       d="M1005 1820 c-3 -5 -1 -10 4 -10 6 0 11 5 11 10 0 6 -2 10 -4 10 -3 0 -8 -4 -11 -10z"
       id="path1896"
       style="fill:#ffffff;fill-opacity:1" />
    <path
       d="M1189 1805 c-2 -17 -9 -29 -16 -27 -19 3 -16 -4 12 -34 14 -15 25 -32 25 -38 0 -6 -5 -4 -10 4 -5 8 -10 11 -10 6 0 -5 -10 0 -22 11 -13 12 -32 23 -43 25 -16 2 -19 -2 -18 -20 2 -15 -1 -21 -8 -16 -6 3 -26 9 -45 11 -26 4 -34 1 -34 -11 0 -15 -12 -21 -35 -16 -5 1 -7 -2 -3 -5 4 -4 3 -16 -3 -27 -9 -16 -8 -19 7 -16 9 1 19 9 22 17 3 9 0 11 -9 7 -8 -4 -5 0 5 8 25 20 35 20 42 1 8 -19 44 -20 44 -1 0 9 -7 12 -20 9 -14 -4 -20 0 -20 12 0 15 2 16 17 4 9 -8 18 -12 20 -10 2 2 34 0 71 -4 37 -5 75 -9 84 -10 10 -1 14 3 10 9 -3 6 -7 35 -7 64 -1 41 -5 56 -19 64 -15 8 -17 8 -11 -2 5 -8 9 -25 10 -39 2 -14 5 -37 9 -50 5 -22 4 -23 -10 -9 -8 8 -19 37 -23 64 -7 42 -8 45 -12 19z m-45 -81 c4 -11 2 -12 -14 -1 -11 6 -20 15 -20 19 0 12 28 -3 34 -18z"
       id="path1898"
       style="fill:#ffffff;fill-opacity:1" />
    <path
       d="M1171 1804 c0 -11 3 -14 6 -6 3 7 2 16 -1 19 -3 4 -6 -2 -5 -13z"
       id="path1900"
       style="fill:#ffffff;fill-opacity:1" />
    <path
       d="M1016 1794 c-20 -19 -20 -34 -2 -34 8 0 16 -6 19 -12 4 -10 7 -10 18 0 11 10 10 12 -5 12 -14 0 -17 5 -12 25 7 29 3 31 -18 9z"
       id="path1902"
       style="fill:#ffffff;fill-opacity:1" />
    <path
       d="M1362 1775 c0 -16 2 -22 5 -12 2 9 2 23 0 30 -3 6 -5 -1 -5 -18z"
       id="path1904"
       style="fill:#ffffff;fill-opacity:1" />
    <path
       d="M1777 1793 c-4 -3 0 -11 9 -17 14 -10 12 -15 -12 -39 -29 -30 -28 -33 10 -16 31 14 39 34 26 60 -11 20 -22 24 -33 12z"
       id="path1906"
       style="fill:#ffffff;fill-opacity:1" />
    <path
       d="M1633 1783 c-7 -2 -13 -14 -13 -26 1 -22 1 -22 13 1 7 12 17 19 22 15 4 -4 5 -2 1 5 -4 6 -8 12 -9 11 -1 0 -8 -3 -14 -6z"
       id="path1908"
       style="fill:#ffffff;fill-opacity:1" />
    <path
       d="M956 1755 c-11 -8 -15 -15 -10 -15 6 0 19 7 30 15 10 8 15 14 9 14 -5 0 -19 -6 -29 -14z"
       id="path1910"
       style="fill:#ffffff;fill-opacity:1" />
    <path
       d="M1653 1745 c-3 -9 -3 -18 -1 -21 3 -3 8 4 11 16 6 23 -1 27 -10 5z"
       id="path1912"
       style="fill:#ffffff;fill-opacity:1" />
    <path
       d="M1106 1678 c3 -4 11 -5 19 -1 21 7 19 12 -4 10 -11 0 -18 -5 -15 -9z"
       id="path1914"
       style="fill:#ffffff;fill-opacity:1" />
    <path
       d="M1090 1641 c0 -11 -4 -23 -10 -26 -5 -3 -15 -16 -21 -28 -7 -15 -3 -12 15 8 14 17 25 34 26 38 0 5 6 5 13 1 8 -5 8 -2 -2 9 -17 22 -21 21 -21 -2z"
       id="path1916"
       style="fill:#ffffff;fill-opacity:1" />
    <path
       d="M955 1629 c-12 -19 5 -23 22 -6 16 16 16 17 1 17 -9 0 -20 -5 -23 -11z"
       id="path1918"
       style="fill:#ffffff;fill-opacity:1" />
    <path
       d="M950 1591 c0 -10 42 -23 49 -16 2 3 -1 5 -8 5 -7 0 -10 4 -7 8 2 4 -4 9 -15 9 -10 1 -19 -2 -19 -6z"
       id="path1920"
       style="fill:#ffffff;fill-opacity:1" />
    <path
       d="M1080 1579 c-7 -11 -10 -23 -7 -25 2 -2 9 7 15 21 14 30 7 33 -8 4z"
       id="path1922"
       style="fill:#ffffff;fill-opacity:1" />
    <path
       d="M1876 1585 c-11 -8 -15 -15 -9 -15 6 0 16 7 23 15 16 19 11 19 -14 0z"
       id="path1924"
       style="fill:#ffffff;fill-opacity:1" />
    <path
       d="M906 1451 c-4 -7 -5 -15 -2 -18 9 -9 19 4 14 18 -4 11 -6 11 -12 0z"
       id="path1926"
       style="fill:#ffffff;fill-opacity:1" />
    <path
       d="M1050 1409 c0 -5 5 -7 10 -4 6 3 10 8 10 11 0 2 -4 4 -10 4 -5 0 -10 -5 -10 -11z"
       id="path1928"
       style="fill:#ffffff;fill-opacity:1" />
    <path
       d="M1100 1379 c0 -5 5 -7 10 -4 6 3 10 8 10 11 0 2 -4 4 -10 4 -5 0 -10 -5 -10 -11z"
       id="path1930"
       style="fill:#ffffff;fill-opacity:1" />
    <path
       d="M860 1111 c0 -5 5 -13 10 -16 6 -3 10 -2 10 4 0 5 -4 13 -10 16 -5 3 -10 2 -10 -4z"
       id="path1932"
       style="fill:#ffffff;fill-opacity:1" />
    <path
       d="M1005 1100 c-3 -5 -1 -10 4 -10 6 0 11 5 11 10 0 6 -2 10 -4 10 -3 0 -8 -4 -11 -10z"
       id="path1934"
       style="fill:#ffffff;fill-opacity:1" />
    <path
       d="M951 1024 c0 -11 3 -14 6 -6 3 7 2 16 -1 19 -3 4 -6 -2 -5 -13z"
       id="path1936"
       style="fill:#ffffff;fill-opacity:1" />
    <path
       d="M1333 1012 c-7 -4 -9 -13 -4 -21 6 -9 10 -7 14 8 3 12 4 21 4 21 -1 0 -7 -4 -14 -8z"
       id="path1938"
       style="fill:#ffffff;fill-opacity:1" />
    <path
       d="M1579 1003 c0 -4 -2 -16 -4 -25 -2 -9 3 -25 10 -35 12 -15 13 -13 13 20 0 20 -4 40 -9 43 -5 3 -9 2 -10 -3z"
       id="path1940"
       style="fill:#ffffff;fill-opacity:1" />
    <path
       d="M1346 977 c-28 -29 -35 -68 -18 -94 8 -13 20 -23 27 -23 23 0 25 -42 5 -75 -11 -18 -17 -35 -13 -38 12 -13 48 -7 81 13 36 22 46 25 37 11 -3 -5 4 -12 15 -16 11 -4 17 -11 14 -17 -4 -5 4 -5 16 2 17 9 20 14 9 20 -7 5 -17 6 -21 4 -9 -6 -11 5 -10 49 0 16 -6 31 -14 34 -8 3 -22 19 -30 35 l-15 29 -36 -21 c-32 -19 -38 -19 -51 -6 -19 19 -10 56 22 88 14 13 20 25 13 24 -7 0 -20 -9 -31 -19z m83 -106 c17 -11 3 -35 -21 -37 -10 -1 -16 2 -13 6 3 5 0 12 -6 16 -8 4 -7 9 2 15 17 11 21 11 38 0z m48 -45 c-2 -6 -12 -10 -21 -8 -12 2 -16 -3 -14 -15 2 -11 -4 -18 -17 -20 -20 -3 -20 -3 0 6 11 5 14 10 8 12 -7 1 -17 3 -23 4 -5 1 -13 3 -17 4 -5 1 -1 5 7 11 9 6 17 5 21 -2 4 -6 9 -2 13 10 5 14 13 18 27 15 11 -3 18 -11 16 -17z m-77 -52 c0 -8 -5 -12 -10 -9 -6 4 -8 11 -5 16 9 14 15 11 15 -7z"
       id="path1942"
       style="fill:#ffffff;fill-opacity:1" />
    <path
       d="M940 979 c0 -4 4 -10 8 -13 5 -3 9 -22 10 -43 1 -24 -2 -33 -7 -24 -6 9 -11 10 -15 2 -4 -6 4 -15 19 -21 14 -5 23 -14 20 -20 -3 -5 -1 -10 4 -10 14 0 14 17 1 25 -6 4 -10 21 -10 38 0 57 -4 74 -17 74 -7 0 -13 -4 -13 -8z"
       id="path1944"
       style="fill:#ffffff;fill-opacity:1" />
    <path
       d="M1825 973 c-4 -13 -11 -23 -15 -23 -5 0 -6 -10 -2 -22 3 -12 1 -19 -4 -15 -6 3 -8 -9 -6 -29 4 -32 -3 -40 -31 -35 -5 1 -6 -3 -2 -9 4 -6 2 -17 -5 -25 -7 -9 -8 -15 0 -20 5 -3 10 1 10 10 0 9 4 13 10 10 6 -4 7 1 3 12 -4 14 -3 15 6 7 10 -9 10 -20 0 -52 -6 -23 -16 -39 -20 -36 -5 3 -10 -1 -11 -8 0 -7 -2 -17 -3 -23 -2 -5 -3 -14 -4 -20 -1 -5 -5 -3 -11 5 -8 12 -10 12 -16 -3 -3 -9 -10 -14 -15 -11 -5 3 -9 1 -9 -4 0 -15 28 -22 34 -9 3 7 5 6 5 -3 1 -9 -4 -21 -11 -28 -8 -8 -8 -12 -1 -12 13 0 39 30 27 30 -5 0 -4 4 1 8 11 8 55 126 60 164 2 12 8 49 15 81 11 58 7 102 -5 60z"
       id="path1946"
       style="fill:#ffffff;fill-opacity:1" />
    <path
       d="M1048 883 c6 -2 18 -2 25 0 6 3 1 5 -13 5 -14 0 -19 -2 -12 -5z"
       id="path1948"
       style="fill:#ffffff;fill-opacity:1" />
    <path
       d="M1525 881 c-3 -5 -1 -12 5 -16 12 -7 14 -26 3 -24 -27 4 -35 -1 -23 -16 10 -12 15 -13 28 -3 13 12 14 10 1 -9 -11 -19 -15 -20 -22 -8 -4 8 -13 15 -19 15 -7 0 -7 -4 1 -13 6 -8 8 -17 4 -20 -6 -6 11 -11 30 -8 4 0 7 -11 7 -25 0 -20 4 -24 19 -19 11 3 22 1 26 -5 5 -8 14 -5 28 7 21 18 21 18 5 -7 -15 -24 -21 -25 -109 -26 -99 -1 -224 12 -249 27 -13 7 -12 8 3 9 10 0 17 8 17 21 0 16 -4 19 -21 14 -15 -5 -19 -4 -15 4 4 6 2 11 -3 11 -6 0 -11 -11 -11 -24 0 -14 -4 -28 -10 -31 -5 -3 -7 0 -5 7 5 13 -5 14 -58 9 -5 -1 -5 -6 -2 -12 4 -6 14 -8 22 -5 8 4 11 1 8 -5 -4 -6 -13 -8 -21 -5 -9 3 -14 -2 -14 -14 0 -11 4 -20 8 -20 10 0 8 -27 -2 -52 -4 -9 -5 -22 -1 -28 3 -5 -1 -10 -9 -10 -9 0 -15 -5 -14 -12 2 -6 -17 -16 -42 -21 -25 -5 -49 -15 -53 -23 -5 -8 -12 -12 -18 -9 -5 4 -9 2 -9 -3 0 -5 13 -12 28 -15 16 -3 34 -17 42 -31 7 -14 22 -26 33 -26 13 0 17 -5 14 -15 -4 -8 -2 -17 3 -20 16 -10 11 -28 -6 -21 -9 3 -12 2 -9 -4 4 -6 14 -9 23 -8 10 2 16 -3 14 -11 -1 -7 2 -19 8 -25 5 -7 7 -16 3 -19 -10 -10 10 -8 27 3 13 8 12 10 -4 10 -12 0 -16 5 -13 14 3 8 -1 20 -9 26 -23 20 -16 34 9 18 16 -11 28 -12 44 -5 35 15 70 1 76 -30 5 -26 4 -26 -9 -8 -8 10 -14 22 -14 27 0 4 -10 7 -22 7 -16 -1 -18 -3 -6 -6 9 -2 19 -10 21 -18 5 -11 1 -11 -20 0 -27 14 -56 9 -32 -6 7 -4 16 -6 19 -4 10 6 6 -40 -4 -47 -6 -4 -7 -10 -4 -14 4 -3 14 0 22 8 11 11 12 18 4 26 -15 15 30 11 59 -6 17 -9 68 -11 68 -2 0 1 15 3 33 4 19 2 32 -1 32 -8 0 -6 5 -4 10 4 5 8 10 10 10 3 0 -6 7 -10 16 -9 26 4 144 80 141 91 -2 6 -14 16 -28 22 -22 12 -19 18 6 13 5 -1 7 2 3 6 -4 4 -3 13 3 21 9 10 8 13 -4 13 -8 0 -17 -6 -20 -14 -7 -18 -46 -9 -54 11 -5 12 -7 12 -14 1 -5 -7 -9 -17 -9 -23 0 -5 4 -4 9 4 11 17 23 -1 15 -23 -7 -19 -24 -22 -24 -4 0 6 -3 9 -6 5 -3 -3 1 -20 9 -36 9 -17 11 -31 6 -31 -6 0 -8 -4 -5 -8 3 -5 0 -9 -7 -10 -7 -1 -24 -3 -39 -6 -16 -2 -28 0 -28 6 0 5 10 6 22 2 20 -6 21 -5 9 10 -19 23 -28 20 -39 -11 -7 -20 -11 -23 -11 -9 -1 17 -3 17 -25 3 -21 -14 -26 -14 -47 1 -22 14 -23 14 -11 0 8 -10 9 -19 4 -22 -9 -5 -19 9 -23 32 0 4 -5 15 -10 25 -7 13 -6 19 6 23 8 4 14 11 13 18 -1 6 3 21 10 34 8 14 9 22 2 22 -5 0 -10 -7 -10 -15 0 -8 -5 -15 -11 -15 -5 0 -7 5 -4 10 3 6 1 10 -4 10 -14 0 -14 -6 -1 -31 6 -10 9 -19 8 -20 -50 -8 -88 -9 -88 -1 0 6 5 14 10 17 6 4 8 11 4 16 -9 15 -24 0 -24 -26 0 -15 -5 -22 -15 -21 -22 3 -31 16 -11 16 9 0 15 4 11 10 -3 5 -12 7 -20 4 -8 -3 -24 4 -36 15 -13 12 -29 21 -36 21 -8 0 -11 4 -8 10 3 5 1 10 -5 10 -6 0 -9 4 -5 9 3 5 -5 17 -17 25 -12 9 -18 16 -12 16 17 0 54 -31 54 -46 0 -8 4 -14 10 -14 5 0 6 7 3 17 -4 10 -2 14 5 9 6 -3 14 -1 18 6 4 7 4 10 -1 6 -8 -7 -65 18 -65 28 0 4 11 4 24 2 19 -4 32 4 61 39 20 23 31 43 24 43 -7 0 -4 9 7 21 10 12 18 22 16 23 -2 0 0 9 3 18 4 11 14 15 28 12 138 -27 204 -34 283 -28 49 3 91 7 95 10 3 2 5 -15 4 -39 -2 -23 1 -47 6 -53 7 -8 4 -11 -8 -10 -12 1 -18 -6 -18 -22 0 -12 -7 -27 -15 -32 -11 -7 -8 -10 15 -10 21 0 26 -3 16 -9 -8 -5 -9 -11 -3 -15 6 -3 14 4 18 16 4 14 2 24 -5 26 -9 3 -8 7 2 16 8 6 19 26 26 45 10 30 9 32 -6 20 -15 -13 -15 -12 -5 7 6 12 8 25 4 30 -4 5 -3 6 2 2 16 -14 38 30 31 62 -11 51 -45 29 -36 -23 1 -5 -3 -6 -8 -3 -5 3 -7 15 -4 25 3 13 -2 23 -17 31 -13 7 -20 8 -16 2 3 -6 2 -13 -4 -17 -5 -3 -10 0 -10 8 0 8 -8 21 -17 28 -15 12 -16 12 -8 -1 4 -8 4 -12 0 -7 -17 15 -12 69 7 80 10 7 18 16 18 21 0 4 -6 3 -14 -3 -10 -9 -15 -8 -20 4 -6 17 -22 20 -31 6z m-353 -263 c-7 -7 -12 -8 -12 -2 0 14 12 26 19 19 2 -3 -1 -11 -7 -17z m391 -173 c7 -16 -8 -29 -23 -20 -10 6 -2 35 10 35 4 0 10 -7 13 -15z m32 -25 c3 -5 1 -10 -4 -10 -6 0 -11 5 -11 10 0 6 2 10 4 10 3 0 8 -4 11 -10z m-25 -11 c0 -4 -7 -12 -15 -19 -10 -9 -15 -9 -15 -1 0 6 -7 11 -15 11 -8 0 -15 4 -15 10 0 5 13 8 30 7 16 -1 30 -5 30 -8z"
       id="path1950"
       style="fill:#ffffff;fill-opacity:1" />
    <path
       d="M1620 883 c0 -5 11 -20 24 -35 14 -14 22 -29 18 -34 -4 -4 -1 -4 6 0 17 10 16 11 -18 46 -16 17 -30 27 -30 23z"
       id="path1952"
       style="fill:#ffffff;fill-opacity:1" />
    <path
       d="M944 838 c1 -15 5 -30 9 -33 4 -3 5 -2 2 2 -3 3 1 13 8 21 8 11 8 14 0 9 -7 -4 -14 0 -16 10 -3 10 -4 6 -3 -9z"
       id="path1954"
       style="fill:#ffffff;fill-opacity:1" />
    <path
       d="M1336 795 c-10 -14 -25 -25 -32 -25 -8 0 -14 -10 -14 -22 0 -19 2 -20 10 -8 6 10 10 11 10 3 0 -7 5 -13 10 -13 6 0 10 8 10 18 0 10 7 28 16 40 22 32 13 37 -10 7z"
       id="path1956"
       style="fill:#ffffff;fill-opacity:1" />
    <path
       d="M1690 810 c-8 -5 -12 -12 -9 -15 4 -3 12 1 19 10 14 17 11 19 -10 5z"
       id="path1958"
       style="fill:#ffffff;fill-opacity:1" />
    <path
       d="M990 800 c-9 -6 -10 -10 -3 -10 6 0 15 5 18 10 8 12 4 12 -15 0z"
       id="path1960"
       style="fill:#ffffff;fill-opacity:1" />
    <path
       d="M1301 794 c0 -11 3 -14 6 -6 3 7 2 16 -1 19 -3 4 -6 -2 -5 -13z"
       id="path1962"
       style="fill:#ffffff;fill-opacity:1" />
    <path
       d="M990 710 c0 -5 7 -7 15 -4 8 4 15 8 15 10 0 2 -7 4 -15 4 -8 0 -15 -4 -15 -10z"
       id="path1964"
       style="fill:#ffffff;fill-opacity:1" />
    <path
       d="M1078 708 c-4 -10 -3 -18 2 -18 5 0 11 -8 14 -18 3 -9 14 -22 25 -29 16 -10 20 -9 25 3 3 9 2 12 -5 9 -12 -8 -41 14 -33 26 3 5 1 9 -5 9 -5 0 -11 8 -13 18 -3 16 -4 16 -10 0z"
       id="path1966"
       style="fill:#ffffff;fill-opacity:1" />
    <path
       d="M1020 690 c-9 -6 -10 -10 -3 -10 6 0 15 5 18 10 8 12 4 12 -15 0z"
       id="path1968"
       style="fill:#ffffff;fill-opacity:1" />
    <path
       d="M1300 655 c13 -14 19 -25 13 -25 -6 0 -16 7 -23 15 -18 22 -32 18 -18 -5 7 -11 18 -20 24 -20 6 0 19 -9 29 -20 11 -13 14 -20 6 -20 -9 0 -8 -5 3 -15 16 -17 46 -20 46 -5 0 16 99 7 106 -10 5 -12 8 -11 14 6 5 12 21 27 37 34 16 7 34 24 40 37 15 30 6 29 -29 -4 -24 -23 -35 -26 -92 -26 -62 1 -153 22 -129 30 8 3 3 13 -14 29 -34 31 -43 31 -13 -1z"
       id="path1970"
       style="fill:#ffffff;fill-opacity:1" />
    <path
       d="M1106 613 c-6 -14 -5 -15 5 -6 7 7 10 15 7 18 -3 3 -9 -2 -12 -12z"
       id="path1972"
       style="fill:#ffffff;fill-opacity:1" />
    <path
       d="M1206 594 c-4 -10 -14 -14 -25 -11 -10 2 -23 -3 -29 -14 -16 -25 -15 -28 8 -26 10 1 17 3 15 6 -6 6 38 37 48 33 10 -3 9 16 -2 22 -5 3 -12 -1 -15 -10z"
       id="path1974"
       style="fill:#ffffff;fill-opacity:1" />
    <path
       d="M1694 563 c-16 -26 -27 -52 -25 -58 1 -5 -1 -7 -5 -2 -4 4 -18 -3 -31 -15 -24 -22 -31 -48 -13 -48 6 0 10 -7 10 -15 0 -8 5 -15 10 -15 16 0 12 27 -5 34 -8 3 -15 11 -15 18 0 10 3 9 9 -1 7 -11 11 -10 22 7 7 11 19 18 26 15 9 -4 11 0 7 11 -3 9 -1 16 6 16 6 0 9 4 6 9 -3 5 0 14 7 20 18 14 16 -14 -2 -48 -8 -14 -15 -45 -16 -70 -1 -25 -7 -56 -14 -68 -10 -21 -9 -23 10 -23 17 0 19 3 11 13 -9 10 -8 19 3 35 10 13 11 23 5 27 -6 3 3 29 21 63 24 45 29 65 24 92 -4 26 -3 31 4 20 6 -8 11 -25 11 -37 0 -13 5 -23 11 -23 14 0 6 -65 -16 -130 -12 -36 -14 -38 -10 -12 2 17 0 32 -5 32 -6 0 -10 -12 -10 -26 0 -14 -5 -34 -11 -46 -6 -11 -8 -22 -5 -25 3 -3 10 5 16 18 10 22 10 21 5 -9 -3 -20 -1 -31 5 -27 6 3 10 15 10 25 0 23 20 70 31 70 9 0 6 -20 -5 -39 -5 -7 -10 -34 -12 -59 -2 -25 -5 -47 -8 -49 -2 -2 -23 14 -47 37 -24 22 -46 40 -50 40 -4 0 -17 -16 -29 -35 -19 -31 -20 -36 -6 -63 8 -16 22 -34 30 -41 9 -8 16 -18 16 -23 0 -6 -7 -5 -15 2 -9 7 -18 10 -22 6 -3 -3 -1 -6 6 -6 8 0 10 -7 6 -20 -4 -11 -2 -20 4 -20 6 0 11 -9 11 -20 0 -11 4 -20 10 -20 15 0 61 -42 70 -65 7 -17 9 -17 9 -3 1 10 -21 40 -47 67 l-49 50 41 45 c50 54 60 52 17 -2 -17 -22 -31 -43 -31 -47 0 -3 18 -24 40 -46 41 -41 48 -43 29 -8 -8 15 -7 24 3 36 11 14 9 14 -14 -1 -25 -17 -27 -16 -33 3 -7 22 0 41 15 41 5 0 7 -7 4 -15 -4 -8 -1 -15 6 -15 8 0 10 9 6 26 -4 16 -3 23 3 19 7 -3 8 0 5 9 -10 25 12 18 30 -9 19 -30 20 -67 1 -120 -16 -46 -14 -51 14 -35 13 6 21 21 22 38 l1 27 8 -25 c8 -24 8 -23 9 8 1 18 -13 63 -31 100 -18 37 -31 72 -31 77 1 6 9 37 17 70 25 98 21 182 -11 245 -16 30 -33 56 -39 57 -7 2 -24 -18 -40 -44z m9 -315 c9 -9 17 -20 17 -22 0 -8 -33 -46 -40 -46 -16 0 -51 44 -46 57 3 8 1 11 -4 8 -16 -10 -11 12 6 30 17 17 26 13 67 -27z"
       id="path1976"
       style="fill:#ffffff;fill-opacity:1" />
    <path
       d="M970 591 c0 -6 4 -13 10 -16 6 -3 7 1 4 9 -7 18 -14 21 -14 7z"
       id="path1978"
       style="fill:#ffffff;fill-opacity:1" />
    <path
       d="M1211 561 c-8 -5 -9 -11 -3 -15 5 -3 12 1 16 9 6 17 6 18 -13 6z"
       id="path1980"
       style="fill:#ffffff;fill-opacity:1" />
    <path
       d="M713 550 c-13 -5 -23 -12 -23 -15 0 -4 5 -3 10 0 12 7 -29 -64 -47 -83 -14 -15 -34 -82 -27 -93 2 -4 -3 -69 -11 -144 -15 -141 -19 -222 -9 -213 5 5 15 112 15 162 0 11 4 27 10 37 16 31 28 109 16 109 -7 0 -7 4 1 12 7 7 12 21 11 33 -1 17 -2 16 -9 -5 -7 -23 -8 -22 -8 10 0 19 3 44 8 55 8 18 9 18 10 -5 1 -19 7 -10 25 34 14 33 31 67 38 75 34 40 32 48 -10 31z"
       id="path1982"
       style="fill:#ffffff;fill-opacity:1" />
    <path
       d="M1398 527 c-27 -22 -37 -47 -20 -47 4 0 8 -9 8 -20 0 -11 -3 -20 -7 -20 -4 0 -12 -14 -18 -31 -8 -23 -8 -30 2 -26 6 2 12 10 12 18 0 17 24 44 32 35 8 -8 33 13 33 28 0 6 -5 3 -11 -6 -11 -20 -43 -13 -35 8 3 7 0 16 -6 20 -6 4 3 18 23 35 40 34 27 39 -13 6z"
       id="path1984"
       style="fill:#ffffff;fill-opacity:1" />
    <path
       d="M1460 519 c0 -24 -4 -30 -15 -25 -8 3 -15 1 -15 -4 0 -12 27 -13 34 -2 10 17 14 62 5 62 -5 0 -9 -14 -9 -31z"
       id="path1986"
       style="fill:#ffffff;fill-opacity:1" />
    <path
       d="M630 510 c-19 -11 -40 -19 -47 -20 -20 0 -122 -41 -136 -53 -6 -7 -19 -13 -27 -14 -16 -2 -112 -41 -147 -61 -27 -15 -77 -142 -104 -261 -22 -101 -22 -101 -9 -101 6 0 10 9 10 19 0 41 24 121 32 109 6 -10 8 -9 8 2 0 9 -5 21 -12 28 -9 9 -9 12 0 12 7 0 11 3 11 7 -4 23 2 43 10 38 6 -3 8 4 6 15 -2 11 2 23 10 27 7 5 13 12 13 16 0 15 24 67 32 67 5 0 10 -6 13 -12 2 -7 12 2 21 20 10 19 19 32 22 30 2 -3 -9 -31 -26 -64 -33 -66 -51 -132 -31 -120 6 4 9 12 6 17 -4 5 1 16 9 24 8 9 13 22 10 30 -10 26 45 103 65 91 7 -4 8 -1 5 8 -3 9 -2 16 4 16 14 0 10 -21 -37 -203 -23 -87 -41 -162 -41 -167 0 -15 16 -12 18 3 0 6 6 32 11 57 6 25 14 55 16 68 3 13 9 21 13 18 5 -3 7 7 5 22 -5 37 28 126 49 130 12 2 15 -3 12 -20 -4 -21 -4 -22 5 -3 15 31 13 37 -11 33 -17 -2 -21 2 -22 25 -2 39 24 76 48 68 16 -6 16 -9 5 -22 -16 -16 -23 -59 -10 -59 5 0 15 23 22 50 7 28 18 55 25 61 9 7 9 -2 -1 -36 -8 -25 -12 -53 -9 -63 5 -14 4 -15 -5 -2 -8 12 -10 9 -9 -15 1 -35 -10 -113 -18 -126 -3 -5 -7 -36 -9 -69 -2 -33 -8 -67 -13 -76 -11 -19 -4 -54 9 -54 5 0 9 6 9 13 0 6 5 54 10 106 15 142 48 269 82 319 17 24 32 41 34 39 3 -3 -8 -24 -25 -48 -20 -30 -36 -75 -50 -144 -24 -109 -41 -285 -29 -285 4 0 9 10 10 23 1 12 2 31 3 42 1 11 3 31 4 45 1 19 3 22 10 10 6 -8 7 -18 4 -24 -3 -5 -1 -6 5 -2 8 5 9 13 2 25 -5 10 -6 22 -2 26 4 5 1 5 -7 0 -11 -6 -13 -3 -7 16 4 13 9 49 12 79 2 30 12 77 20 104 15 48 63 128 84 141 11 7 -6 -37 -28 -73 -8 -12 -12 -25 -8 -29 3 -3 1 -12 -5 -19 -6 -8 -8 -21 -5 -30 4 -9 0 -67 -8 -128 -26 -189 -26 -204 -7 -201 9 1 14 9 12 16 -13 48 11 281 40 382 5 21 28 56 50 78 55 55 52 63 -11 29z"
       id="path1988"
       style="fill:#ffffff;fill-opacity:1" />
    <path
       d="M1174 520 c-25 -10 -40 -50 -19 -50 8 0 12 8 10 19 -3 18 -2 19 30 5 38 -16 75 -18 75 -6 0 5 -6 9 -12 10 -39 3 -54 8 -58 18 -3 7 -13 9 -26 4z"
       id="path1990"
       style="fill:#ffffff;fill-opacity:1" />
    <path
       d="M1348 524 c-4 -3 -12 -6 -20 -7 -23 -4 -19 -20 5 -23 17 -2 23 3 23 17 0 21 0 21 -8 13z"
       id="path1992"
       style="fill:#ffffff;fill-opacity:1" />
    <path
       d="M795 510 c3 -5 8 -10 11 -10 2 0 4 5 4 10 0 6 -5 10 -11 10 -5 0 -7 -4 -4 -10z"
       id="path1994"
       style="fill:#ffffff;fill-opacity:1" />
    <path
       d="M1585 510 c-3 -5 -1 -10 4 -10 6 0 11 5 11 10 0 6 -2 10 -4 10 -3 0 -8 -4 -11 -10z"
       id="path1996"
       style="fill:#ffffff;fill-opacity:1" />
    <path
       d="M930 501 c0 -7 -5 -9 -12 -5 -7 4 -10 4 -6 0 3 -4 10 -8 15 -8 4 0 14 -4 21 -10 8 -7 12 -7 12 0 0 5 -7 15 -15 22 -11 9 -15 9 -15 1z"
       id="path1998"
       style="fill:#ffffff;fill-opacity:1" />
    <path
       d="M1485 500 c-3 -5 -1 -10 4 -10 6 0 11 5 11 10 0 6 -2 10 -4 10 -3 0 -8 -4 -11 -10z"
       id="path2000"
       style="fill:#ffffff;fill-opacity:1" />
    <path
       d="M1761 503 c-1 -7 -1 -16 0 -19 0 -4 -5 -10 -12 -14 -7 -5 -9 -15 -4 -26 6 -16 9 -14 17 14 5 19 7 39 4 45 -3 9 -5 8 -5 0z"
       id="path2002"
       style="fill:#ffffff;fill-opacity:1" />
    <path
       d="M1038 477 c-3 -16 1 -28 13 -35 16 -10 17 -9 7 21 -14 42 -15 42 -20 14z"
       id="path2004"
       style="fill:#ffffff;fill-opacity:1" />
    <path
       d="M722 468 c-22 -24 -34 -53 -46 -103 l-7 -30 22 25 c22 26 22 26 -4 -30 -9 -20 -19 -51 -22 -69 -3 -19 -9 -41 -14 -50 -15 -29 -21 -82 -12 -100 5 -9 12 -37 16 -61 4 -25 9 -47 11 -49 8 -9 1 94 -8 112 -10 20 7 87 23 87 5 0 9 -37 10 -82 0 -46 4 -92 8 -102 4 -11 6 57 5 150 -2 93 -1 160 2 149 4 -11 12 -27 19 -35 7 -8 27 -58 45 -110 36 -106 43 -119 35 -69 l-5 34 12 -30 c23 -55 59 -105 76 -105 15 1 15 2 -2 15 -10 8 -15 19 -10 26 4 8 3 10 -4 5 -14 -9 -38 47 -47 109 -7 43 4 61 21 34 5 -8 9 -8 14 1 5 8 9 7 13 -5 5 -10 3 -14 -5 -9 -7 4 -8 3 -4 -5 10 -15 29 -3 22 15 -7 18 4 18 32 -2 12 -8 26 -13 31 -10 5 3 23 -17 41 -44 32 -50 44 -63 33 -35 -5 14 -2 14 22 3 27 -12 55 -54 55 -82 0 -9 8 -14 20 -13 26 2 25 5 -9 58 -31 49 -64 81 -131 128 -43 31 -49 32 -122 29 -43 -2 -78 -5 -78 -7 0 -2 7 -9 16 -16 9 -6 14 -20 12 -31 -4 -17 -5 -17 -17 6 -12 21 -20 63 -24 122 -1 10 -8 20 -15 23 -10 4 -12 0 -8 -10 3 -9 2 -14 -3 -10 -19 11 -21 63 -7 120 9 32 18 60 21 63 9 9 5 -21 -9 -75 -13 -50 -12 -57 7 -54 4 0 7 -7 7 -16 0 -14 2 -15 9 -4 5 7 6 22 3 34 -3 12 -1 18 5 14 11 -7 32 80 25 101 -6 20 -57 14 -80 -10z"
       id="path2006"
       style="fill:#ffffff;fill-opacity:1" />
    <path
       d="M1347 467 c-11 -29 -9 -43 4 -30 6 6 9 19 7 29 -3 18 -4 18 -11 1z"
       id="path2008"
       style="fill:#ffffff;fill-opacity:1" />
    <path
       d="M1245 453 c-7 -20 -6 -23 6 -23 5 0 7 5 3 12 -5 7 -2 9 8 6 8 -4 15 -1 15 6 0 17 -25 16 -32 -1z"
       id="path2010"
       style="fill:#ffffff;fill-opacity:1" />
    <path
       d="M1460 460 c0 -5 4 -10 9 -10 6 0 13 5 16 10 3 6 -1 10 -9 10 -9 0 -16 -4 -16 -10z"
       id="path2012"
       style="fill:#ffffff;fill-opacity:1" />
    <path
       d="M1811 406 c-1 -32 -8 -85 -17 -119 -12 -48 -13 -62 -3 -68 21 -13 28 -1 22 37 -4 22 -2 39 6 43 6 4 12 32 12 61 2 53 2 54 19 32 13 -16 20 -48 25 -119 7 -120 12 -146 26 -137 8 4 7 9 -1 14 -9 5 -9 9 -1 14 7 5 8 13 2 23 -6 11 -4 31 5 57 12 33 12 43 2 51 -16 13 -21 35 -8 35 5 0 6 8 3 17 -7 17 -5 17 21 0 15 -10 30 -16 33 -14 3 3 -10 13 -29 23 -40 21 -101 72 -110 93 -4 9 -7 -10 -7 -43z"
       id="path2014"
       style="fill:#ffffff;fill-opacity:1" />
    <path
       d="M1080 435 c0 -5 5 -17 10 -25 5 -8 10 -10 10 -5 0 6 -5 17 -10 25 -5 8 -10 11 -10 5z"
       id="path2016"
       style="fill:#ffffff;fill-opacity:1" />
    <path
       d="M1432 420 c-7 -12 -17 -18 -22 -15 -5 3 -11 1 -15 -4 -7 -13 33 -5 49 9 7 5 15 7 18 4 3 -2 8 2 11 11 9 23 -26 19 -41 -5z"
       id="path2018"
       style="fill:#ffffff;fill-opacity:1" />
    <path
       d="M606 403 c-3 -10 -8 -55 -11 -101 -3 -45 -9 -92 -12 -105 -2 -12 -4 -36 -4 -52 1 -17 -3 -51 -7 -77 -5 -25 -6 -52 -1 -59 9 -16 19 68 43 369 4 44 1 54 -8 25z"
       id="path2020"
       style="fill:#ffffff;fill-opacity:1" />
    <path
       d="M1328 412 c-10 -4 -14 -12 -10 -19 6 -9 11 -7 20 7 7 11 11 20 10 19 -2 0 -11 -3 -20 -7z"
       id="path2022"
       style="fill:#ffffff;fill-opacity:1" />
    <path
       d="M1473 406 c-6 -8 -9 -17 -6 -20 12 -11 19 -6 20 14 2 23 2 23 -14 6z"
       id="path2024"
       style="fill:#ffffff;fill-opacity:1" />
    <path
       d="M976 387 c3 -10 9 -15 12 -12 3 3 0 11 -7 18 -10 9 -11 8 -5 -6z"
       id="path2026"
       style="fill:#ffffff;fill-opacity:1" />
    <path
       d="M1630 390 c-9 -6 -10 -10 -3 -10 11 0 -40 -126 -56 -140 -3 -3 -6 -9 -7 -15 0 -5 -3 -21 -8 -35 -7 -27 3 -60 29 -95 13 -19 12 -24 -11 -58 -13 -20 -21 -37 -16 -37 12 0 58 50 54 58 -2 4 1 8 7 10 17 6 13 -29 -6 -50 -13 -14 -13 -18 -2 -18 8 0 22 7 33 15 16 12 20 12 33 -1 8 -7 21 -14 29 -14 9 0 -3 19 -29 45 -53 54 -93 147 -82 195 4 17 17 43 29 58 29 35 37 58 28 82 -5 14 -11 17 -22 10z"
       id="path2028"
       style="fill:#ffffff;fill-opacity:1" />
    <path
       d="M1836 293 c-4 -37 -9 -88 -11 -113 l-5 -45 15 40 c15 37 24 169 13 180 -3 3 -8 -25 -12 -62z"
       id="path2030"
       style="fill:#ffffff;fill-opacity:1" />
    <path
       d="M175 325 c-68 -25 -156 -73 -167 -89 -4 -6 -8 -17 -8 -25 0 -11 4 -9 15 5 14 18 14 17 4 -11 -12 -34 -20 -175 -9 -175 4 0 10 35 12 78 6 75 31 162 45 149 3 -4 12 -2 18 3 9 8 14 6 19 -5 3 -8 1 -15 -4 -15 -5 0 -10 -10 -9 -22 0 -13 -6 -51 -14 -85 -9 -38 -11 -76 -7 -100 7 -37 8 -36 9 17 2 47 8 87 24 157 2 7 6 16 10 19 4 4 7 16 7 26 0 18 22 48 35 48 3 0 -1 -13 -10 -29 -10 -20 -11 -32 -5 -36 6 -4 9 -3 8 2 -4 14 23 54 33 48 5 -4 6 -12 2 -18 -8 -13 -10 -19 -12 -43 -1 -11 -7 -15 -21 -11 -11 3 -23 1 -26 -4 -3 -5 -2 -9 3 -8 19 3 33 -2 33 -12 0 -5 -4 -8 -9 -5 -5 4 -7 -4 -3 -16 4 -16 2 -19 -9 -13 -12 8 -12 6 -1 -8 15 -18 8 -37 -14 -37 -17 0 -19 -21 -3 -37 7 -7 7 -13 1 -17 -10 -6 -4 -56 8 -56 4 0 12 32 19 72 13 80 54 210 77 246 9 13 14 25 12 27 -2 2 -30 -7 -63 -20z"
       id="path2032"
       style="fill:#ffffff;fill-opacity:1" />
    <path
       d="M346 319 c-9 -18 -16 -45 -16 -61 0 -17 -4 -27 -10 -23 -6 4 -7 -1 -3 -11 5 -13 3 -15 -7 -9 -9 6 -10 4 -3 -10 7 -11 6 -29 -2 -53 -14 -39 -32 -52 -45 -32 -4 7 -10 -6 -14 -32 -4 -24 -9 -54 -12 -68 l-5 -25 15 25 c8 14 12 28 9 32 -8 15 8 48 24 48 10 0 13 -5 8 -18 -4 -9 -8 -26 -9 -38 -2 -11 -6 -26 -10 -32 -4 -7 -1 -12 6 -12 9 0 20 29 31 84 9 46 28 123 42 171 27 93 27 117 1 64z"
       id="path2034"
       style="fill:#ffffff;fill-opacity:1" />
    <path
       d="M1936 281 c7 -25 16 -99 19 -163 5 -80 11 -118 19 -118 7 0 11 15 9 43 l-3 42 15 -33 c9 -18 13 -37 10 -43 -4 -5 -1 -9 4 -9 18 0 12 38 -14 94 -14 29 -27 68 -30 87 l-5 34 14 -30 c9 -16 15 -23 16 -15 0 9 -7 25 -15 36 -25 37 -5 33 35 -7 25 -25 37 -45 33 -54 -8 -22 -26 -13 -34 16 -7 23 -7 23 -8 2 -1 -12 5 -28 12 -35 8 -6 12 -22 9 -34 -2 -12 2 -25 8 -29 9 -5 10 -1 5 14 -4 12 -2 21 4 21 6 0 8 7 5 15 -4 8 -1 15 5 15 18 0 13 -68 -5 -78 -11 -6 -14 -16 -9 -31 12 -38 23 -22 30 42 6 53 3 72 -15 115 -12 29 -29 52 -36 52 -7 0 -18 10 -25 21 -9 17 -13 19 -20 8 -7 -11 -9 -9 -9 7 0 11 -5 25 -12 32 -8 8 -9 12 -1 12 6 0 23 -14 37 -30 l25 -31 -2 31 c-1 16 -5 30 -9 30 -12 0 -16 1 -46 10 l-29 8 13 -47z"
       id="path2036"
       style="fill:#ffffff;fill-opacity:1" />
    <path
       d="M263 280 c-5 -22 -7 -40 -3 -40 4 0 11 11 14 24 3 13 9 31 12 40 3 9 2 16 -3 16 -5 0 -14 -18 -20 -40z"
       id="path2038"
       style="fill:#ffffff;fill-opacity:1" />
    <path
       d="M535 303 c-4 -10 -8 -49 -10 -88 l-3 -70 13 85 c14 85 14 106 0 73z"
       id="path2040"
       style="fill:#ffffff;fill-opacity:1" />
    <path
       d="M1278 293 c6 -2 9 -10 6 -15 -4 -7 -2 -8 4 -4 18 11 14 26 -5 25 -11 0 -13 -3 -5 -6z"
       id="path2042"
       style="fill:#ffffff;fill-opacity:1" />
    <path
       d="M441 274 c0 -11 3 -14 6 -6 3 7 2 16 -1 19 -3 4 -6 -2 -5 -13z"
       id="path2044"
       style="fill:#ffffff;fill-opacity:1" />
    <path
       d="M2018 273 c5 -10 20 -43 35 -73 15 -30 27 -71 28 -90 1 -24 3 -28 6 -12 3 13 9 19 15 16 7 -5 8 -2 2 7 -4 8 -7 26 -5 42 2 19 -2 27 -11 25 -8 -2 -14 9 -16 32 -2 26 0 31 8 20 5 -8 10 -10 10 -5 1 6 6 -1 11 -14 7 -17 15 -22 29 -18 25 6 45 -29 60 -105 6 -29 13 -63 16 -76 2 -12 9 -22 15 -22 6 0 6 7 -1 21 -7 11 -9 23 -7 26 3 3 12 -8 21 -24 l15 -28 1 28 c0 15 -4 27 -10 27 -5 0 -17 16 -25 36 -18 43 -18 47 -5 39 6 -3 7 1 4 9 -3 9 -10 13 -15 10 -5 -3 -9 -1 -9 5 0 5 5 13 10 16 6 4 20 -14 31 -39 11 -26 24 -44 29 -41 14 9 23 -15 10 -30 -6 -8 -10 -24 -7 -37 4 -20 4 -20 6 5 0 15 6 27 12 27 6 0 8 -7 5 -16 -3 -8 -2 -12 4 -9 6 3 10 -1 10 -9 0 -9 4 -16 10 -16 10 0 -8 58 -38 116 -15 30 -42 52 -113 97 -61 38 -100 55 -113 52 -12 -3 -15 -2 -8 1 15 7 6 24 -13 24 -10 0 -12 -5 -7 -17z"
       id="path2046"
       style="fill:#ffffff;fill-opacity:1" />
    <path
       d="M711 214 c1 -38 5 -103 9 -144 l7 -75 2 60 c2 53 4 57 13 35 6 -14 13 -36 15 -50 2 -14 9 -29 15 -35 7 -7 8 1 2 25 -4 19 -7 46 -7 59 1 18 -1 20 -8 10 -7 -11 -9 -11 -9 4 0 9 0 20 1 23 0 4 -4 10 -9 13 -5 3 -12 35 -16 71 -9 87 -16 89 -15 4z"
       id="path2048"
       style="fill:#ffffff;fill-opacity:1" />
    <path
       d="M787 273 c-13 -22 10 -34 44 -25 30 9 31 10 9 11 -15 1 -31 6 -37 12 -6 6 -13 7 -16 2z"
       id="path2050"
       style="fill:#ffffff;fill-opacity:1" />
    <path
       d="M1505 270 c-3 -5 -3 -10 2 -10 4 0 0 -5 -9 -11 -10 -5 -18 -15 -18 -21 0 -6 8 -4 18 5 10 10 19 24 19 32 0 18 -3 19 -12 5z"
       id="path2052"
       style="fill:#ffffff;fill-opacity:1" />
    <path
       d="M403 240 c-11 -16 -10 -18 2 -14 8 4 15 12 15 20 0 19 -3 18 -17 -6z"
       id="path2054"
       style="fill:#ffffff;fill-opacity:1" />
    <path
       d="M1923 190 c2 -64 0 -75 -14 -72 -13 2 -16 -8 -17 -53 0 -30 5 -58 11 -62 7 -4 8 0 3 12 -4 11 -2 22 6 26 9 6 9 11 -2 24 -11 14 -11 19 3 33 18 17 18 17 21 -65 1 -11 5 -25 9 -30 9 -8 2 84 -13 202 l-8 60 1 -75z"
       id="path2056"
       style="fill:#ffffff;fill-opacity:1" />
    <path
       d="M431 234 c0 -11 3 -14 6 -6 3 7 2 16 -1 19 -3 4 -6 -2 -5 -13z"
       id="path2058"
       style="fill:#ffffff;fill-opacity:1" />
    <path
       d="M51 208 c-13 -36 -28 -217 -17 -207 4 4 7 34 8 68 1 33 5 61 9 61 4 0 10 7 13 16 3 8 2 12 -4 9 -13 -8 -13 1 0 44 13 45 6 52 -9 9z"
       id="path2060"
       style="fill:#ffffff;fill-opacity:1" />
    <path
       d="M843 233 c9 -2 25 -2 35 0 9 3 1 5 -18 5 -19 0 -27 -2 -17 -5z"
       id="path2062"
       style="fill:#ffffff;fill-opacity:1" />
    <path
       d="M240 215 c0 -8 -5 -15 -10 -15 -7 0 -7 -6 -1 -19 6 -10 7 -21 4 -25 -3 -3 -1 -6 6 -6 8 0 11 8 8 20 -3 11 -1 23 4 26 12 7 11 34 -1 34 -5 0 -10 -7 -10 -15z"
       id="path2064"
       style="fill:#ffffff;fill-opacity:1" />
    <path
       d="M401 194 c0 -11 3 -14 6 -6 3 7 2 16 -1 19 -3 4 -6 -2 -5 -13z"
       id="path2066"
       style="fill:#ffffff;fill-opacity:1" />
    <path
       d="M1856 201 c-3 -4 -8 -35 -11 -67 -4 -39 -3 -54 3 -44 9 14 23 120 16 120 -1 0 -5 -4 -8 -9z"
       id="path2068"
       style="fill:#ffffff;fill-opacity:1" />
    <path
       d="M1130 196 c0 -2 11 -6 25 -8 13 -3 22 -1 19 3 -5 9 -44 13 -44 5z"
       id="path2070"
       style="fill:#ffffff;fill-opacity:1" />
    <path
       d="M1420 190 c-8 -5 -10 -10 -5 -10 6 0 17 5 25 10 8 5 11 10 5 10 -5 0 -17 -5 -25 -10z"
       id="path2072"
       style="fill:#ffffff;fill-opacity:1" />
    <path
       d="M2146 180 c7 -25 7 -25 -15 -6 -31 28 -26 9 9 -31 19 -21 30 -45 31 -66 1 -18 5 -43 9 -57 l8 -25 1 29 c1 32 -26 143 -40 166 -7 11 -8 8 -3 -10z"
       id="path2074"
       style="fill:#ffffff;fill-opacity:1" />
    <path
       d="M108 167 c-2 -13 1 -29 9 -35 10 -10 11 -6 6 20 -8 42 -10 44 -15 15z"
       id="path2076"
       style="fill:#ffffff;fill-opacity:1" />
    <path
       d="M278 155 c-3 -13 -2 -22 2 -20 11 7 20 45 10 45 -4 0 -10 -11 -12 -25z"
       id="path2078"
       style="fill:#ffffff;fill-opacity:1" />
    <path
       d="M841 142 c4 -21 12 -49 17 -62 l9 -24 5 27 c3 15 1 27 -5 27 -6 0 -8 3 -4 6 6 6 -19 64 -27 64 -2 0 0 -17 5 -38z"
       id="path2080"
       style="fill:#ffffff;fill-opacity:1" />
    <path
       d="M1331 164 c0 -11 3 -14 6 -6 3 7 2 16 -1 19 -3 4 -6 -2 -5 -13z"
       id="path2082"
       style="fill:#ffffff;fill-opacity:1" />
    <path
       d="M1365 170 c-3 -6 1 -7 9 -4 18 7 21 14 7 14 -6 0 -13 -4 -16 -10z"
       id="path2084"
       style="fill:#ffffff;fill-opacity:1" />
    <path
       d="M953 150 c1 -14 9 -34 19 -44 20 -22 23 -36 8 -36 -6 0 -6 -9 0 -26 14 -35 13 -39 -7 -23 -14 12 -16 12 -11 -1 5 -17 64 -23 91 -8 12 6 17 18 15 35 -4 34 -19 38 -48 15 -21 -17 -21 -19 -5 -32 16 -14 17 -13 10 10 -7 23 -7 24 10 10 17 -14 18 -13 11 5 -5 15 -4 17 5 8 6 -6 9 -19 6 -28 -10 -24 -37 -30 -55 -11 -13 13 -14 20 -5 35 9 14 6 27 -17 67 -23 39 -29 44 -27 24z"
       id="path2086"
       style="fill:#ffffff;fill-opacity:1" />
    <path
       d="M886 152 c-2 -4 9 -9 25 -10 19 -2 28 2 24 8 -7 12 -42 13 -49 2z"
       id="path2088"
       style="fill:#ffffff;fill-opacity:1" />
    <path
       d="M2125 93 c8 -32 15 -67 17 -78 3 -14 6 -11 9 12 3 19 2 30 -4 26 -6 -4 -8 8 -4 30 4 26 1 39 -13 52 -17 15 -17 13 -5 -42z"
       id="path2090"
       style="fill:#ffffff;fill-opacity:1" />
    <path
       d="M230 122 c0 -11 -5 -24 -11 -27 -6 -4 -8 -13 -5 -20 2 -7 -1 -18 -7 -24 -6 -6 -7 -11 -3 -11 5 0 3 -7 -4 -15 -7 -9 -10 -18 -6 -22 3 -3 6 0 6 8 0 11 2 11 8 1 5 -7 13 13 21 53 7 36 11 69 7 72 -3 4 -6 -3 -6 -15z"
       id="path2092"
       style="fill:#ffffff;fill-opacity:1" />
    <path
       d="M1270 129 c0 -5 5 -7 10 -4 6 3 10 8 10 11 0 2 -4 4 -10 4 -5 0 -10 -5 -10 -11z"
       id="path2094"
       style="fill:#ffffff;fill-opacity:1" />
    <path
       d="M932 85 c12 -25 26 -45 31 -45 5 0 4 7 -4 16 -10 12 -10 17 0 23 9 6 6 10 -9 14 -12 3 -19 10 -16 15 3 6 -1 12 -9 16 -11 4 -9 -6 7 -39z"
       id="path2096"
       style="fill:#ffffff;fill-opacity:1" />
    <path
       d="M1868 94 c-4 -23 -17 -53 -29 -67 -11 -15 -16 -27 -10 -27 22 0 52 60 49 97 l-3 38 -7 -41z"
       id="path2098"
       style="fill:#ffffff;fill-opacity:1" />
    <path
       d="M2282 125 c2 -6 14 -36 27 -68 27 -61 45 -77 30 -25 -12 44 -4 47 12 4 7 -20 19 -36 26 -36 24 0 14 19 -43 77 -30 32 -54 53 -52 48z"
       id="path2100"
       style="fill:#ffffff;fill-opacity:1" />
    <path
       d="M386 58 c-9 -28 -14 -53 -11 -56 3 -3 5 0 5 7 0 7 4 10 9 7 5 -4 7 3 4 14 -3 11 2 31 11 44 9 14 12 27 7 30 -4 3 -16 -18 -25 -46z"
       id="path2102"
       style="fill:#ffffff;fill-opacity:1" />
    <path
       d="M350 88 c0 -4 4 -8 9 -8 6 0 12 4 15 8 3 5 -1 9 -9 9 -8 0 -15 -4 -15 -9z"
       id="path2104"
       style="fill:#ffffff;fill-opacity:1" />
    <path
       d="M2105 81 c4 -12 2 -21 -4 -21 -6 0 -11 -4 -11 -10 0 -5 7 -10 15 -10 18 0 21 45 4 56 -8 4 -9 0 -4 -15z"
       id="path2106"
       style="fill:#ffffff;fill-opacity:1" />
    <path
       d="M91 74 c0 -11 3 -14 6 -6 3 7 2 16 -1 19 -3 4 -6 -2 -5 -13z"
       id="path2108"
       style="fill:#ffffff;fill-opacity:1" />
    <path
       d="M914 75 c2 -11 6 -27 9 -35 3 -8 7 -22 9 -30 3 -7 7 -10 10 -5 3 6 -3 28 -13 50 -10 22 -17 31 -15 20z"
       id="path2110"
       style="fill:#ffffff;fill-opacity:1" />
    <path
       d="M485 55 c0 -14 3 -25 7 -25 3 0 9 -8 11 -17 3 -10 5 1 6 25 1 27 -3 42 -11 42 -7 0 -13 -11 -13 -25z"
       id="path2112"
       style="fill:#ffffff;fill-opacity:1" />
    <path
       d="M794 26 c0 -13 4 -22 9 -19 10 6 9 31 -2 37 -5 3 -8 -5 -7 -18z"
       id="path2114"
       style="fill:#ffffff;fill-opacity:1" />
    <path
       d="M2070 25 c0 -23 3 -26 10 -15 8 12 13 13 30 2 16 -10 20 -10 20 1 0 7 -10 13 -22 14 -11 1 -25 8 -29 15 -6 8 -9 3 -9 -17z"
       id="path2116"
       style="fill:#ffffff;fill-opacity:1" />
  </g>
</svg>
